<?xml version="1.0" encoding="UTF-8"?>
<svg xmlns="http://www.w3.org/2000/svg" viewBox="0 0 129.41 128.46">
  <defs>
    <style>
      .cls-1 {
        fill: #2a5c4e;
      }
    </style>
  </defs>
  <g id="_图层_6" data-name="图层 6">
    <g>
      <path class="cls-1" d="m68.71,31.46l13,6.29c.98.47,1.93.06,2.12-.92l1.05-5.48c.19-.98-.46-2.17-1.44-2.64l-13.98-6.77c-.98-.47-1.93-.06-2.12.92l-1.05,5.48c-.1.52.04,1.09.34,1.59.8.36,1.51.89,2.09,1.53Z"/>
      <path class="cls-1" d="m70.04,37.79c-.35,1.26-1.07,2.36-2.04,3.17h0s0,5.2,0,5.2c.18.25.39.49.63.72l6.35.58h6.81l.21.22v1.61l-.34.24-6.71.82,13.57,7.02c1.32.68,2.46.38,2.54-.67l.44-5.87c.08-1.05-.94-2.47-2.26-3.15l-18.86-9.76c-.12-.06-.23-.09-.35-.14Z"/>
      <path class="cls-1" d="m68,54.83l-.05,7.64c.4.99,1.5,2.12,2.78,2.77l21.04,10.71c1.15-1.2,2.3-2.69,3.38-4.59,0,0,.87,2.12.9,5.82.27-.16.42-.44.42-.82l-.13-6.15c-.02-1.1-1.35-2.67-2.95-3.48l-22.87-11.64c-1.09-.56-2.03-.61-2.52-.25Z"/>
      <path class="cls-1" d="m88.31,83.66l-5.29-3.03s1.52,0,3.67-.95l-18.7-6.63v.39s2,16.14,2,16.14c0,0,10.23,7.86,18.31-5.92Z"/>
      <path class="cls-1" d="m44.17,36.83c.19.98,1.14,1.39,2.12.92l13-6.29c.58-.64,1.29-1.16,2.09-1.53.3-.5.44-1.07.34-1.59l-1.05-5.48c-.19-.98-1.14-1.39-2.12-.92l-13.98,6.77c-.98.47-1.63,1.66-1.44,2.64l1.05,5.48Z"/>
      <path class="cls-1" d="m44.98,80.63l-5.29,3.03c8.08,13.77,18.31,5.92,18.31,5.92l2-16.14v-.39s-18.7,6.63-18.7,6.63c2.15.94,3.67.95,3.67.95Z"/>
      <path class="cls-1" d="m90.86,101.68l9.89-16.99-5.23-1.85c-.65,3.18-1.95,6.9-4.35,11.05l-.99-8.28s-4.83,10.79-18.12,12.18c0,0-3.99-.25-7.25,3.97l28.46,1.46c-.7-1.62-2.42-1.55-2.42-1.55Z"/>
      <path class="cls-1" d="m39.48,57.38l13.57-7.02-6.71-.82-.34-.24v-1.61l.21-.22h6.81l6.35-.58c.24-.22.45-.47.63-.72v-5.2h0c-.97-.81-1.69-1.91-2.04-3.17-.55.14-18.72,9.7-19.2,9.9-1.32.68-2.34,2.1-2.26,3.15,0,0,.44,5.87.44,5.87.08,1.05,1.22,1.35,2.54.67Z"/>
      <path class="cls-1" d="m34.72,103.23l28.46-1.46c-3.25-4.23-7.25-3.97-7.25-3.97-13.29-1.39-18.12-12.18-18.12-12.18l-.99,8.28c-2.39-4.15-3.69-7.88-4.35-11.05l-5.23,1.85,9.89,16.99s-1.72-.07-2.42,1.55Z"/>
      <path class="cls-1" d="m31.9,77.17c.03-3.7.9-5.82.9-5.82,1.08,1.9,2.23,3.39,3.38,4.59l21.04-10.71c1.28-.65,2.37-1.78,2.78-2.77l-.05-7.64c-.48-.37-1.42-.31-2.52.25l-22.87,11.64c-1.6.81-2.93,2.38-2.95,3.48l-.13,6.15c0,.38.15.65.42.82Z"/>
    </g>
  </g>
  <g id="_图层_7" data-name="图层 7">
    <path class="cls-1" d="m62.39,72.42s.5-.5,1.61-.67l.13,27.71h-.21s-2.13-4.19-7.17-3.98-8.55-2.35-8.55-2.35c0,0,9.1,1.46,12-2.41l2.2-18.3Z"/>
  </g>
  <g id="_图层_5" data-name="图层 5">
    <path class="cls-1" d="m67.33,35.6c-.07,4.38-6.59,4.38-6.67,0,.07-4.38,6.59-4.38,6.67,0Z"/>
  </g>
</svg>